<svg width="21" height="20" viewBox="0 0 21 20" fill="none" xmlns="http://www.w3.org/2000/svg">
<path d="M4.49997 8V11C4.49996 11.1555 4.46366 11.3089 4.39397 11.448L3.11997 14H17.884L16.608 11.448C16.5376 11.3091 16.5006 11.1557 16.5 11V8C16.5 6.4087 15.8678 4.88258 14.7426 3.75736C13.6174 2.63214 12.0913 2 10.5 2C8.90867 2 7.38254 2.63214 6.25733 3.75736C5.13211 4.88258 4.49997 6.4087 4.49997 8ZM6.49997 16H1.49997C1.32944 16 1.16174 15.9564 1.01282 15.8733C0.863899 15.7902 0.738695 15.6704 0.649109 15.5253C0.559524 15.3802 0.508532 15.2146 0.500981 15.0443C0.49343 14.8739 0.52957 14.7045 0.605967 14.552L2.49997 10.764V8C2.49997 5.87827 3.34282 3.84344 4.84311 2.34315C6.3434 0.842855 8.37823 0 10.5 0C12.6217 0 14.6565 0.842855 16.1568 2.34315C17.6571 3.84344 18.5 5.87827 18.5 8V10.764L20.394 14.552C20.4704 14.7045 20.5065 14.8739 20.499 15.0443C20.4914 15.2146 20.4404 15.3802 20.3508 15.5253C20.2612 15.6704 20.136 15.7902 19.9871 15.8733C19.8382 15.9564 19.6705 16 19.5 16H14.5C14.5 17.0609 14.0785 18.0783 13.3284 18.8284C12.5782 19.5786 11.5608 20 10.5 20C9.4391 20 8.42168 19.5786 7.67154 18.8284C6.92139 18.0783 6.49997 17.0609 6.49997 16ZM12.5 16H8.49997C8.49997 16.5304 8.71068 17.0391 9.08575 17.4142C9.46083 17.7893 9.96953 18 10.5 18C11.0304 18 11.5391 17.7893 11.9142 17.4142C12.2893 17.0391 12.5 16.5304 12.5 16Z" fill="white"/>
</svg>
