<svg width="23" height="23" viewBox="0 0 23 23" fill="none" xmlns="http://www.w3.org/2000/svg">
<path d="M6.25 10.0625H10.5625V23H6.25V10.0625ZM7.6875 21.5625H9.125V11.5H7.6875V21.5625ZM12 12.9375H16.3125V23H12V12.9375ZM13.4375 21.5625H14.875V14.375H13.4375V21.5625ZM0.5 15.8125H4.8125V23H0.5V15.8125ZM1.9375 21.5625H3.375V17.25H1.9375V21.5625ZM17.75 7.1875H22.0625V23H17.75V7.1875ZM19.1875 21.5625H20.625V8.625H19.1875V21.5625ZM16.0991 6.97412C16.2414 7.28109 16.3125 7.5918 16.3125 7.90625C16.3125 8.20573 16.2563 8.48649 16.144 8.74854C16.0317 9.01058 15.8783 9.23893 15.6836 9.43359C15.4889 9.62825 15.2606 9.78174 14.9985 9.89404C14.7365 10.0063 14.4557 10.0625 14.1562 10.0625C13.8568 10.0625 13.576 10.0063 13.314 9.89404C13.0519 9.78174 12.8236 9.62825 12.6289 9.43359C12.4342 9.23893 12.2808 9.01058 12.1685 8.74854C12.0562 8.48649 12 8.20573 12 7.90625V7.77148C12 7.72656 12.0037 7.68164 12.0112 7.63672L9.8999 6.58105C9.70524 6.77572 9.47689 6.92546 9.21484 7.03027C8.9528 7.13509 8.68327 7.1875 8.40625 7.1875C8.0918 7.1875 7.78109 7.11637 7.47412 6.97412L4.59912 9.84912C4.74137 10.1561 4.8125 10.4668 4.8125 10.7812C4.8125 11.0807 4.75635 11.3615 4.64404 11.6235C4.53174 11.8856 4.37826 12.1139 4.18359 12.3086C3.98893 12.5033 3.76058 12.6567 3.49854 12.769C3.23649 12.8813 2.95573 12.9375 2.65625 12.9375C2.35677 12.9375 2.07601 12.8813 1.81396 12.769C1.55192 12.6567 1.32357 12.5033 1.12891 12.3086C0.934245 12.1139 0.780762 11.8856 0.668457 11.6235C0.556152 11.3615 0.5 11.0807 0.5 10.7812C0.5 10.4818 0.556152 10.201 0.668457 9.93896C0.780762 9.67692 0.934245 9.44857 1.12891 9.25391C1.32357 9.05925 1.55192 8.90576 1.81396 8.79346C2.07601 8.68115 2.35677 8.625 2.65625 8.625C2.9707 8.625 3.28141 8.69613 3.58838 8.83838L6.46338 5.96338C6.32113 5.65641 6.25 5.3457 6.25 5.03125C6.25 4.73177 6.30615 4.45101 6.41846 4.18896C6.53076 3.92692 6.68424 3.69857 6.87891 3.50391C7.07357 3.30924 7.30192 3.15576 7.56396 3.04346C7.82601 2.93115 8.10677 2.875 8.40625 2.875C8.70573 2.875 8.98649 2.93115 9.24854 3.04346C9.51058 3.15576 9.73893 3.30924 9.93359 3.50391C10.1283 3.69857 10.2817 3.92692 10.394 4.18896C10.5063 4.45101 10.5625 4.73177 10.5625 5.03125V5.16602C10.5625 5.21094 10.5588 5.25586 10.5513 5.30078L12.6626 6.35645C12.8573 6.16178 13.0856 6.01204 13.3477 5.90723C13.6097 5.80241 13.8792 5.75 14.1562 5.75C14.4707 5.75 14.7814 5.82113 15.0884 5.96338L17.9634 3.08838C17.8211 2.78141 17.75 2.4707 17.75 2.15625C17.75 1.85677 17.8062 1.57601 17.9185 1.31396C18.0308 1.05192 18.1842 0.823568 18.3789 0.628906C18.5736 0.434245 18.8019 0.280762 19.064 0.168457C19.326 0.0561523 19.6068 0 19.9062 0C20.2057 0 20.4865 0.0561523 20.7485 0.168457C21.0106 0.280762 21.2389 0.434245 21.4336 0.628906C21.6283 0.823568 21.7817 1.05192 21.894 1.31396C22.0063 1.57601 22.0625 1.85677 22.0625 2.15625C22.0625 2.45573 22.0063 2.73649 21.894 2.99854C21.7817 3.26058 21.6283 3.48893 21.4336 3.68359C21.2389 3.87826 21.0106 4.03174 20.7485 4.14404C20.4865 4.25635 20.2057 4.3125 19.9062 4.3125C19.5918 4.3125 19.2811 4.24137 18.9741 4.09912L16.0991 6.97412ZM2.65625 11.5C2.85091 11.5 3.01937 11.4289 3.16162 11.2866C3.30387 11.1444 3.375 10.9759 3.375 10.7812C3.375 10.5866 3.30387 10.4181 3.16162 10.2759C3.01937 10.1336 2.85091 10.0625 2.65625 10.0625C2.46159 10.0625 2.29313 10.1336 2.15088 10.2759C2.00863 10.4181 1.9375 10.5866 1.9375 10.7812C1.9375 10.9759 2.00863 11.1444 2.15088 11.2866C2.29313 11.4289 2.46159 11.5 2.65625 11.5ZM19.9062 1.4375C19.7116 1.4375 19.5431 1.50863 19.4009 1.65088C19.2586 1.79313 19.1875 1.96159 19.1875 2.15625C19.1875 2.35091 19.2586 2.51937 19.4009 2.66162C19.5431 2.80387 19.7116 2.875 19.9062 2.875C20.1009 2.875 20.2694 2.80387 20.4116 2.66162C20.5539 2.51937 20.625 2.35091 20.625 2.15625C20.625 1.96159 20.5539 1.79313 20.4116 1.65088C20.2694 1.50863 20.1009 1.4375 19.9062 1.4375ZM8.40625 5.75C8.60091 5.75 8.76937 5.67887 8.91162 5.53662C9.05387 5.39437 9.125 5.22591 9.125 5.03125C9.125 4.83659 9.05387 4.66813 8.91162 4.52588C8.76937 4.38363 8.60091 4.3125 8.40625 4.3125C8.21159 4.3125 8.04313 4.38363 7.90088 4.52588C7.75863 4.66813 7.6875 4.83659 7.6875 5.03125C7.6875 5.22591 7.75863 5.39437 7.90088 5.53662C8.04313 5.67887 8.21159 5.75 8.40625 5.75ZM14.1562 8.625C14.3509 8.625 14.5194 8.55387 14.6616 8.41162C14.8039 8.26937 14.875 8.10091 14.875 7.90625C14.875 7.71159 14.8039 7.54313 14.6616 7.40088C14.5194 7.25863 14.3509 7.1875 14.1562 7.1875C13.9616 7.1875 13.7931 7.25863 13.6509 7.40088C13.5086 7.54313 13.4375 7.71159 13.4375 7.90625C13.4375 8.10091 13.5086 8.26937 13.6509 8.41162C13.7931 8.55387 13.9616 8.625 14.1562 8.625Z" fill="white"/>
</svg>
