<svg width="21" height="20" viewBox="0 0 21 20" fill="none" xmlns="http://www.w3.org/2000/svg">
<path d="M19.5 10V2.5C19.5 2.10218 19.342 1.72064 19.0607 1.43934C18.7794 1.15804 18.3978 1 18 1H3C2.60218 1 2.22064 1.15804 1.93934 1.43934C1.65804 1.72064 1.5 2.10218 1.5 2.5V17.5C1.5 17.8978 1.65804 18.2794 1.93934 18.5607C2.22064 18.842 2.60218 19 3 19H10.5" stroke="white" stroke-width="2" stroke-linecap="round" stroke-linejoin="round"/>
<path d="M14.5 17C16.1569 17 17.5 15.6569 17.5 14C17.5 12.3431 16.1569 11 14.5 11C12.8431 11 11.5 12.3431 11.5 14C11.5 15.6569 12.8431 17 14.5 17Z" stroke="white" stroke-width="2"/>
<path d="M17 16L19.5 18M5.5 6H15.5M5.5 10H9.5" stroke="white" stroke-width="2" stroke-linecap="round" stroke-linejoin="round"/>
</svg>
