<svg width="23" height="22" viewBox="0 0 23 22" fill="none" xmlns="http://www.w3.org/2000/svg">
<path d="M8.67997 0H14.32L14.967 3.237C15.5027 3.47706 16.012 3.77197 16.487 4.117L19.616 3.058L22.436 7.942L19.955 10.122C20.0149 10.7058 20.0149 11.2942 19.955 11.878L22.435 14.058L19.616 18.942L16.487 17.884C16.012 18.2287 15.5026 18.5233 14.967 18.763L14.319 22H8.67997L8.03296 18.763C7.49727 18.5229 6.98788 18.228 6.51296 17.883L3.38397 18.942L0.563965 14.058L3.04496 11.878C2.98505 11.2942 2.98505 10.7058 3.04496 10.122L0.564965 7.942L3.38496 3.058L6.51296 4.116C6.98793 3.77131 7.49731 3.47674 8.03296 3.237L8.67997 0ZM10.32 2L9.77796 4.705L9.25296 4.898C8.5572 5.15488 7.91053 5.52895 7.34096 6.004L6.91096 6.363L4.29596 5.478L3.11596 7.522L5.18796 9.343L5.09296 9.894C4.96853 10.6261 4.96853 11.3739 5.09296 12.106L5.18796 12.656L3.11496 14.478L4.29496 16.522L6.91096 15.637L7.34096 15.996C7.91053 16.4711 8.5572 16.8451 9.25296 17.102L9.77796 17.295L10.32 20H12.68L13.222 17.295L13.747 17.102C14.4427 16.8451 15.0894 16.4711 15.659 15.996L16.089 15.637L18.705 16.522L19.885 14.478L17.813 12.657L17.907 12.106C18.0314 11.3739 18.0314 10.6261 17.907 9.894L17.813 9.344L19.885 7.522L18.705 5.478L16.089 6.363L15.659 6.004C15.0894 5.52895 14.4427 5.15488 13.747 4.898L13.222 4.705L12.68 2H10.32ZM11.5 8C10.7043 8 9.94125 8.31607 9.37864 8.87868C8.81604 9.44129 8.49996 10.2044 8.49996 11C8.49996 11.7956 8.81604 12.5587 9.37864 13.1213C9.94125 13.6839 10.7043 14 11.5 14C12.2956 14 13.0587 13.6839 13.6213 13.1213C14.1839 12.5587 14.5 11.7956 14.5 11C14.5 10.2044 14.1839 9.44129 13.6213 8.87868C13.0587 8.31607 12.2956 8 11.5 8ZM6.49996 11C6.49996 9.67392 7.02675 8.40215 7.96443 7.46447C8.90211 6.52678 10.1739 6 11.5 6C12.826 6 14.0978 6.52678 15.0355 7.46447C15.9732 8.40215 16.5 9.67392 16.5 11C16.5 12.3261 15.9732 13.5979 15.0355 14.5355C14.0978 15.4732 12.826 16 11.5 16C10.1739 16 8.90211 15.4732 7.96443 14.5355C7.02675 13.5979 6.49996 12.3261 6.49996 11Z" fill="#D9F0FF"/>
</svg>
