<svg width="17" height="24" viewBox="0 0 17 24" fill="none" xmlns="http://www.w3.org/2000/svg">
<path d="M8.50001 18V12.75M8.50001 12.75C9.00598 12.7505 9.50998 12.687 10 12.561M8.50001 12.75C7.99405 12.7505 7.49005 12.687 7.00001 12.561M10.75 20.039C9.26321 20.3204 7.73682 20.3204 6.25001 20.039M10 22.422C9.00274 22.5264 7.99729 22.5264 7.00001 22.422M10.75 18V17.808C10.75 16.825 11.408 15.985 12.258 15.492C13.686 14.665 14.8014 13.3902 15.4314 11.865C16.0614 10.3399 16.1708 8.64948 15.7427 7.05582C15.3145 5.46217 14.3728 4.05419 13.0633 3.05006C11.7538 2.04594 10.1497 1.50171 8.49951 1.50171C6.84935 1.50171 5.24524 2.04594 3.93575 3.05006C2.62626 4.05419 1.68448 5.46217 1.25634 7.05582C0.828205 8.64948 0.937609 10.3399 1.5676 11.865C2.1976 13.3902 3.31301 14.665 4.74101 15.492C5.59101 15.985 6.25001 16.825 6.25001 17.808V18" stroke="white" stroke-width="1.5" stroke-linecap="round" stroke-linejoin="round"/>
</svg>
